<?xml version="1.0" encoding="iso-8859-1"?>
<!-- Generator: Adobe Illustrator 19.0.0, SVG Export Plug-In . SVG Version: 6.00 Build 0)  -->
<svg version="1.1" id="Capa_1" xmlns="http://www.w3.org/2000/svg" xmlns:xlink="http://www.w3.org/1999/xlink" x="0px" y="0px"
	 viewBox="0 0 512 512" style="enable-background:new 0 0 512 512;" xml:space="preserve">
<path style="fill:#7CE854;" d="M403.681,201.89c-13.161,51.733-52.789,92.89-103.619,108.22
	c13.694,53.83-2.775,111.083-44.061,149.396c27.19,25.232,63.6,40.668,103.619,40.668C443.777,500.173,512,431.95,512,347.792
	C512,278.957,466.353,220.791,403.681,201.89z"/>
<path style="fill:#00C3FF;" d="M211.939,310.109c-50.83-15.33-90.459-56.486-103.619-108.22C45.647,220.791,0,278.957,0,347.792
	c0,84.157,68.223,152.381,152.381,152.381c40.02,0,76.429-15.435,103.619-40.668C214.74,421.216,198.236,363.971,211.939,310.109z"
	/>
<path style="fill:#00AAF0;" d="M102.041,203.939C42.623,224.729,0,281.278,0,347.792c0,67.46,43.841,124.673,104.583,144.723
	C-6.946,429.203-8.179,269.098,102.041,203.939z"/>
<path style="fill:#008CFF;" d="M300.061,310.109c-28.625,8.633-59.444,8.649-88.123,0c-13.694,53.829,2.775,111.083,44.061,149.396
	C297.261,421.216,313.764,363.973,300.061,310.109z"/>
<path style="fill:#FF5050;" d="M256,236.079c39.98-37.101,96.185-49.72,147.681-34.189C428.256,105.289,355.132,11.827,256,11.827
	c-99.206,0-172.237,93.532-147.681,190.063C159.813,186.36,216.018,198.977,256,236.079z"/>
<path style="fill:#ED3A3A;" d="M192.533,25.641C125.775,56.269,90.092,130.238,108.319,201.89c6.201-1.87,12.576-3.334,19.082-4.409
	C114.827,132.322,139.934,66.089,192.533,25.641z"/>
<path style="fill:#FFC850;" d="M256,236.079c21.151,19.628,36.723,45.183,44.061,74.03c50.83-15.33,90.459-56.486,103.619-108.22
	C352.187,186.36,295.982,198.977,256,236.079z"/>
<path style="fill:#FF80BD;" d="M211.939,310.109c7.339-28.847,22.91-54.402,44.061-74.03
	c-39.986-37.107-96.193-49.718-147.681-34.189C121.48,253.624,161.108,294.78,211.939,310.109z"/>
<path style="fill:#F962B1;" d="M127.401,197.481c-6.506,1.076-12.881,2.539-19.082,4.409c11.433,44.94,42.843,81.886,84.214,100.867
	C159.292,277.195,135.624,240.087,127.401,197.481z"/>
<path style="fill:#707487;" d="M256,236.079c-21.151,19.628-36.723,45.183-44.061,74.03c28.625,8.633,59.444,8.649,88.123,0
	C292.723,281.262,277.151,255.707,256,236.079z"/>
<path style="fill:#F98585;" d="M275.575,156.481h-11.848v-11.848c0-4.268-3.459-7.727-7.727-7.727s-7.727,3.459-7.727,7.727v11.848
	h-11.848c-4.267,0-7.727,3.459-7.727,7.727s3.459,7.727,7.727,7.727h11.848v11.848c0,4.268,3.459,7.727,7.727,7.727
	c4.268,0,7.727-3.459,7.727-7.727v-11.848h11.848c4.267,0,7.727-3.459,7.727-7.727C283.302,159.94,279.842,156.481,275.575,156.481z
	"/>
<path style="fill:#9BF57D;" d="M379.194,340.066h-11.848v-11.848c0-4.268-3.459-7.727-7.727-7.727c-4.267,0-7.727,3.459-7.727,7.727
	v11.848h-11.848c-4.267,0-7.727,3.459-7.727,7.727c0,4.268,3.459,7.727,7.727,7.727h11.848v11.848c0,4.268,3.459,7.727,7.727,7.727
	c4.267,0,7.727-3.459,7.727-7.727V355.52h11.848c4.267,0,7.727-3.459,7.727-7.727C386.921,343.525,383.461,340.066,379.194,340.066z
	"/>
<path style="fill:#5BDDFC;" d="M171.955,340.066h-11.848v-11.848c0-4.268-3.459-7.727-7.727-7.727c-4.267,0-7.727,3.459-7.727,7.727
	v11.848h-11.848c-4.267,0-7.727,3.459-7.727,7.727c0,4.268,3.459,7.727,7.727,7.727h11.848v11.848c0,4.268,3.459,7.727,7.727,7.727
	c4.267,0,7.727-3.459,7.727-7.727V355.52h11.848c4.267,0,7.727-3.459,7.727-7.727C179.682,343.525,176.223,340.066,171.955,340.066z
	"/>
<g>
</g>
<g>
</g>
<g>
</g>
<g>
</g>
<g>
</g>
<g>
</g>
<g>
</g>
<g>
</g>
<g>
</g>
<g>
</g>
<g>
</g>
<g>
</g>
<g>
</g>
<g>
</g>
<g>
</g>
</svg>
